<?xml version="1.0" encoding="UTF-8"?><svg id="a" xmlns="http://www.w3.org/2000/svg" xmlns:xlink="http://www.w3.org/1999/xlink" viewBox="0 0 44.5 44.5"><defs><style>.j{fill:#fff;}.k{clip-path:url(#h);}.l{fill:url(#c);}.m{fill:url(#g);}.n{clip-path:url(#b);}.o{fill:url(#i);}.p{clip-path:url(#d);}.q{fill:url(#e);}.r{fill:none;}.s{clip-path:url(#f);}</style><clipPath id="b"><path class="r" d="M16,7.9c-.6,0-1,.4-1,1v5.2c0,.3,.3,.6,.6,.6s.6-.3,.6-.6v-4.9h12l4.6,4.5V29.9h-3.9c-.3,0-.6,.3-.6,.6s.3,.6,.6,.6h4.2c.6,0,1-.5,1-1V13.5c0-.3-.1-.5-.3-.7l-4.8-4.6c-.2-.2-.4-.3-.7-.3H16Z"/></clipPath><linearGradient id="c" x1="-653.6" y1="1048" x2="-652.6" y2="1048" gradientTransform="translate(12513.6 20060.3) scale(19.1 -19.1)" gradientUnits="userSpaceOnUse"><stop offset="0" stop-color="#3365cc"/><stop offset=".2" stop-color="#337bcc"/><stop offset=".4" stop-color="#338bcc"/><stop offset=".7" stop-color="#3395cc"/><stop offset="1" stop-color="#39c"/></linearGradient><clipPath id="d"><path class="r" d="M27.7,8.6v4.6c0,.6,.4,1,1,1h4.4c.3,0,.6-.3,.6-.6s-.3-.6-.6-.6h-4.2v-4.4c0-.3-.3-.6-.6-.6s-.6,.3-.6,.6"/></clipPath><linearGradient id="e" x1="-639.7" y1="1081.3" x2="-638.7" y2="1081.3" gradientTransform="translate(3901 6558.2) scale(6.1 -6.1)" xlink:href="#c"/><clipPath id="f"><path class="r" d="M11.7,14.7h12l4.6,4.5v16.3H11.7V14.7Zm11.9,0h0Zm-12.2-1.2c-.6,0-1,.4-1,1v21.2c0,.6,.4,1,1,1H28.6c.6,0,1-.5,1-1V19c0-.3-.1-.5-.3-.7l-4.8-4.6c-.2-.2-.4-.3-.7-.3H11.5Z"/></clipPath><linearGradient id="g" x1="-653.6" y1="1048" x2="-652.6" y2="1048" gradientTransform="translate(12509.8 20066.8) scale(19.1 -19.1)" xlink:href="#c"/><clipPath id="h"><path class="r" d="M23.2,14.1v4.6c0,.6,.4,1,1,1h4.4c.3,0,.6-.3,.6-.6s-.3-.6-.6-.6h-4.2v-4.4c0-.3-.3-.6-.6-.6s-.6,.3-.6,.6"/></clipPath><linearGradient id="i" x1="-639.7" y1="1081.3" x2="-638.7" y2="1081.3" gradientTransform="translate(3896.5 6563.7) scale(6.1 -6.1)" xlink:href="#c"/></defs><path class="j" d="M44.5,22.3c0,12.3-10,22.3-22.3,22.3S0,34.6,0,22.3,10,0,22.3,0s22.3,10,22.3,22.3"/><g class="n"><rect class="l" x="15" y="7.9" width="19.1" height="23.2"/></g><g class="p"><rect class="q" x="27.7" y="8" width="6.1" height="6.2"/></g><g class="s"><rect class="m" x="10.5" y="13.4" width="19.1" height="23.2"/></g><g class="k"><rect class="o" x="23.2" y="13.5" width="6.1" height="6.2"/></g></svg>